#N canvas 951 406 464 470 12;
#X obj 24 21 inlet;
#X obj 105 176 inlet~;
#X obj 154 176 inlet~;
#X obj 133 399 outlet~;
#X obj 213 398 outlet~;
#X obj 126 244 *~;
#X obj 165 244 *~, f 2;
#X msg 24 111 \$1 20;
#X obj 24 141 line~;
#X obj 228 191 - 1;
#X obj 228 215 abs;
#X msg 228 239 \$1 20;
#X obj 228 261 line~;
#X obj 126 326 *~;
#X obj 165 326 *~;
#X obj 24 51 list trim;
#X text 17 264 handle volume and mute messages for a stereo input, f 13;
#X obj 228 117 tgl 19 0 empty empty empty 0 -10 0 12 #fcfcfc #000000 #000000 0 1;
#X msg 228 81 0;
#X obj 228 52 loadbang;
#X obj 317 217 outlet;
#X text 309 176 indicate when muted;
#X obj 136 369 stereo_pan~;
#X obj 24 81 route volume mute pan;
#X connect 0 0 15 0;
#X connect 1 0 5 0;
#X connect 2 0 6 0;
#X connect 5 0 13 0;
#X connect 6 0 14 0;
#X connect 7 0 8 0;
#X connect 8 0 5 1;
#X connect 8 0 6 1;
#X connect 9 0 10 0;
#X connect 10 0 11 0;
#X connect 11 0 12 0;
#X connect 12 0 13 1;
#X connect 12 0 14 1;
#X connect 13 0 22 0;
#X connect 14 0 22 1;
#X connect 15 0 23 0;
#X connect 17 0 9 0;
#X connect 17 0 20 0;
#X connect 18 0 17 0;
#X connect 19 0 18 0;
#X connect 22 0 3 0;
#X connect 22 1 4 0;
#X connect 23 0 7 0;
#X connect 23 1 17 0;
#X connect 23 2 22 2;
