#N canvas 105 46 1248 358 10;
#X obj 120 135 vumeter;
#X obj 184 135 vumeter;
#X obj 144 76 r~ inL;
#X obj 199 76 r~ inR;
#X obj 45 135 throw~ outL;
#X obj 248 135 throw~ outR;
#X obj 160 108 tape 1;
#X obj 412 135 vumeter;
#X obj 476 135 vumeter;
#X obj 436 76 r~ inL;
#X obj 491 76 r~ inR;
#X obj 337 135 throw~ outL;
#X obj 540 135 throw~ outR;
#X obj 452 108 tape 2;
#X obj 702 135 vumeter;
#X obj 766 135 vumeter;
#X obj 726 76 r~ inL;
#X obj 781 76 r~ inR;
#X obj 627 135 throw~ outL;
#X obj 830 135 throw~ outR;
#X obj 742 108 tape 3;
#N canvas 119 104 1080 684 keys 0;
#X obj 162 36 r notes;
#X obj 82 68 ktrig 60;
#X msg 82 92 1;
#X msg 138 92 2;
#X text 17 13 route controls between looper instances;
#X obj 25 68 loadbang;
#X obj 116 139 s activeLooper;
#X obj 116 120 change;
#X msg 194 92 3;
#X obj 846 320 r aux;
#X obj 893 320 r fs;
#X floatatom 846 344 5 0 0 0 - - - 0;
#X obj 846 362 sel 1;
#X msg 846 381 start;
#X text 849 295 record button;
#X obj 859 502 s looper-msg-2;
#X obj 846 522 s looper-msg-1;
#X obj 892 421 r activeLooper;
#X obj 876 401 r looper-msg;
#X obj 872 482 s looper-msg-3;
#X obj 158 395 v \$0-clear-state;
#X obj 158 419 sel 0 1;
#X msg 17 564 clear CONFIRM?;
#X msg 188 475 1;
#X obj 188 499 v \$0-clear-state;
#X obj 158 570 delay 4000;
#X obj 158 547 bng 19 250 50 0 empty empty empty 0 -10 0 12 #fcfcfc #000000 #000000;
#X msg 158 594 0;
#X obj 158 618 v \$0-clear-state;
#X msg 372 492 clearing!;
#X msg 351 566 0;
#X obj 351 590 v \$0-clear-state;
#X msg 332 492 stop;
#X msg 412 542 clear;
#X obj 332 466 t b b b b b;
#X obj 476 493 delay 1000;
#X obj 287 295 list split 1;
#X obj 287 319 sel stopped;
#X msg 287 343 1;
#X msg 361 343 0;
#X obj 287 367 tgl 19 0 empty empty empty 0 -10 0 12 #fcfcfc #000000 #000000 0 1;
#X obj 158 372 spigot;
#X text 163 243 clear loop;
#X obj 158 268 r notes;
#X obj 287 271 r looper-status;
#X obj 412 566 s looper-msg;
#X msg 476 517 1;
#X obj 476 541 s status-gate;
#X msg 277 594 1;
#X obj 277 618 s status-gate;
#X obj 17 493 t b b;
#X msg 49 517 0;
#X obj 49 541 s status-gate;
#X obj 856 40 r notes;
#X msg 776 88 mute;
#X obj 776 167 s looper-mix-1;
#X obj 836 147 s looper-mix-2;
#X obj 463 35 r notes;
#X msg 352 89 playpause;
#X obj 896 127 s looper-mix-3;
#X text 344 14 play/pause for each instance;
#X obj 352 65 ktrig 65;
#X obj 352 110 s looper-msg-1;
#X msg 444 89 playpause;
#X msg 536 89 playpause;
#X obj 444 110 s looper-msg-2;
#X obj 536 110 s looper-msg-3;
#X text 776 17 mute for each instance;
#X msg 836 88 mute;
#X msg 896 88 mute;
#X obj 573 239 r notes;
#X obj 573 281 tgl 16 0 empty empty empty 0 -8 0 10 #fcfcfc #000000 #000000 0 1;
#X obj 648 237 loadbang;
#X msg 648 258 1;
#X msg 573 302 \$1 20;
#X obj 573 322 line~;
#X obj 529 420 throw~ outL;
#X obj 614 420 throw~ outR;
#X obj 505 372 r~ inL;
#X obj 565 369 r~ inR;
#X text 567 209 input monitoring;
#X obj 529 401 *~;
#X obj 614 401 *~;
#X obj 17 588 s menuStatus;
#X obj 372 516 s menuStatus;
#X obj 630 302 s inputMonitoring;
#X obj 846 441 router4;
#X obj 885 462 s looper-msg-4;
#X obj 573 260 ktrig 83;
#X obj 158 294 ktrig 82;
#X obj 138 68 ktrig 61;
#X obj 194 68 ktrig 62;
#X msg 249 92 4;
#X obj 249 68 ktrig 63;
#X obj 444 65 ktrig 66;
#X obj 536 65 ktrig 67;
#X msg 628 89 playpause;
#X obj 628 65 ktrig 68;
#X obj 776 69 ktrig 72;
#X obj 836 69 ktrig 73;
#X obj 896 69 ktrig 74;
#X msg 958 88 mute;
#X obj 958 69 ktrig 75;
#X obj 628 110 s looper-msg-4;
#X obj 958 107 s looper-mix-4;
#X connect 0 0 1 0;
#X connect 0 0 90 0;
#X connect 0 0 91 0;
#X connect 0 0 93 0;
#X connect 1 0 2 0;
#X connect 2 0 7 0;
#X connect 3 0 7 0;
#X connect 5 0 2 0;
#X connect 7 0 6 0;
#X connect 8 0 7 0;
#X connect 9 0 11 0;
#X connect 10 0 11 0;
#X connect 11 0 12 0;
#X connect 12 0 13 0;
#X connect 13 0 86 0;
#X connect 17 0 86 1;
#X connect 18 0 86 0;
#X connect 20 0 21 0;
#X connect 21 0 23 0;
#X connect 21 0 26 0;
#X connect 21 0 50 0;
#X connect 21 1 34 0;
#X connect 22 0 83 0;
#X connect 23 0 24 0;
#X connect 25 0 27 0;
#X connect 25 0 48 0;
#X connect 26 0 25 0;
#X connect 27 0 28 0;
#X connect 29 0 84 0;
#X connect 30 0 31 0;
#X connect 32 0 25 0;
#X connect 33 0 45 0;
#X connect 34 0 32 0;
#X connect 34 1 30 0;
#X connect 34 2 29 0;
#X connect 34 3 33 0;
#X connect 34 4 35 0;
#X connect 35 0 46 0;
#X connect 36 0 37 0;
#X connect 37 0 38 0;
#X connect 37 1 39 0;
#X connect 38 0 40 0;
#X connect 39 0 40 0;
#X connect 40 0 41 1;
#X connect 41 0 20 0;
#X connect 43 0 89 0;
#X connect 44 0 36 0;
#X connect 46 0 47 0;
#X connect 48 0 49 0;
#X connect 50 0 22 0;
#X connect 50 1 51 0;
#X connect 51 0 52 0;
#X connect 53 0 98 0;
#X connect 53 0 99 0;
#X connect 53 0 100 0;
#X connect 53 0 102 0;
#X connect 54 0 55 0;
#X connect 57 0 61 0;
#X connect 57 0 94 0;
#X connect 57 0 95 0;
#X connect 57 0 97 0;
#X connect 58 0 62 0;
#X connect 61 0 58 0;
#X connect 63 0 65 0;
#X connect 64 0 66 0;
#X connect 68 0 56 0;
#X connect 69 0 59 0;
#X connect 70 0 88 0;
#X connect 71 0 74 0;
#X connect 71 0 85 0;
#X connect 72 0 73 0;
#X connect 73 0 71 0;
#X connect 74 0 75 0;
#X connect 75 0 82 1;
#X connect 75 0 81 1;
#X connect 78 0 81 0;
#X connect 79 0 82 0;
#X connect 81 0 76 0;
#X connect 82 0 77 0;
#X connect 86 0 16 0;
#X connect 86 1 15 0;
#X connect 86 2 19 0;
#X connect 86 3 87 0;
#X connect 88 0 71 0;
#X connect 89 0 41 0;
#X connect 90 0 3 0;
#X connect 91 0 8 0;
#X connect 92 0 7 0;
#X connect 93 0 92 0;
#X connect 94 0 63 0;
#X connect 95 0 64 0;
#X connect 96 0 103 0;
#X connect 97 0 96 0;
#X connect 98 0 54 0;
#X connect 99 0 68 0;
#X connect 100 0 69 0;
#X connect 101 0 104 0;
#X connect 102 0 101 0;
#X restore 35 32 pd keys;
#N canvas 156 134 1131 534 knobs 0;
#X obj 256 63 r knob1;
#X floatatom 256 82 5 0 0 0 - - - 0;
#X floatatom 378 82 5 0 0 0 - - - 0;
#X obj 378 63 r knob2;
#X obj 241 359 list prepend volume;
#X obj 363 359 list prepend volume;
#X obj 363 401 s looper-mix-2;
#X obj 241 401 s looper-mix-1;
#X floatatom 499 82 5 0 0 0 - - - 0;
#X obj 485 359 list prepend volume;
#X obj 499 63 r knob3;
#X obj 485 401 s looper-mix-3;
#X obj 347 176 patch_menu;
#X obj 18 27 loadbang;
#X obj 18 48 s enableSubMenu;
#X obj 129 26 r encbut;
#X obj 129 47 s goHome;
#X obj 256 102 list prepend knob 1;
#X obj 378 102 list prepend knob 2;
#X obj 499 102 list prepend knob 3;
#X floatatom 620 82 5 0 0 0 - - - 0;
#X obj 620 63 r knob4;
#X obj 620 102 list prepend knob 4;
#X obj 347 154 list trim;
#X obj 404 196 s oscOut;
#X obj 139 82 r enc;
#X obj 139 103 list prepend enc;
#X obj 402 259 list prepend speed;
#X obj 402 300 s looper-msg-1;
#X obj 519 259 list prepend speed;
#X obj 637 259 list prepend speed;
#X obj 519 300 s looper-msg-2;
#X obj 637 300 s looper-msg-3;
#X obj 17 82 r menuStatus;
#X obj 17 103 list prepend status;
#X obj 927 23 r looper-mute-1;
#X obj 927 44 sel 0;
#X msg 886 69 decorate vol1;
#X obj 956 96 s menuRaw;
#X obj 411 154 r menuRaw;
#X msg 976 69 decorate vol1 (M);
#X obj 928 154 sel 0;
#X obj 957 206 s menuRaw;
#X obj 928 264 sel 0;
#X obj 957 316 s menuRaw;
#X obj 928 133 r looper-mute-2;
#X msg 885 179 decorate vol2;
#X msg 977 179 decorate vol2 (M);
#X obj 928 243 r looper-mute-3;
#X msg 887 289 decorate vol3;
#X msg 977 289 decorate vol3 (M);
#X obj 402 280 list trim;
#X obj 519 280 list trim;
#X obj 637 280 list trim;
#X obj 485 380 list trim;
#X obj 363 380 list trim;
#X obj 241 380 list trim;
#X obj 23 135 r knob1Override;
#X msg 23 156 knobOverride 1;
#X obj 27 183 r knob2Override;
#X msg 27 204 knobOverride 2;
#X obj 31 235 r knob3Override;
#X msg 31 256 knobOverride 3;
#X obj 42 282 r knob4Override;
#X msg 42 303 knobOverride 4;
#X obj 46 451 list prepend pan;
#X obj 46 472 list trim;
#X obj 46 493 s looper-mix-1;
#X obj 154 450 list prepend pan;
#X obj 154 471 list trim;
#X obj 154 492 s looper-mix-2;
#X obj 259 450 list prepend pan;
#X obj 259 471 list trim;
#X obj 928 367 sel 0;
#X obj 957 419 s menuRaw;
#X obj 928 346 r looper-mute-4;
#X msg 887 392 decorate vol4;
#X msg 977 392 decorate vol4 (M);
#X obj 402 227 route speed1 speed2 speed3 speed4;
#X obj 755 259 list prepend speed;
#X obj 755 280 list trim;
#X obj 755 300 s looper-msg-4;
#X obj 608 359 list prepend volume;
#X obj 608 380 list trim;
#X obj 241 323 route vol1 vol2 vol3 vol4;
#X obj 608 401 s looper-mix-4;
#X obj 45 414 route pan1 pan2 pan3 pan4;
#X obj 259 492 s looper-mix-3;
#X obj 364 450 list prepend pan;
#X obj 364 471 list trim;
#X obj 364 492 s looper-mix-4;
#X connect 0 0 1 0;
#X connect 1 0 17 0;
#X connect 2 0 18 0;
#X connect 3 0 2 0;
#X connect 4 0 56 0;
#X connect 5 0 55 0;
#X connect 8 0 19 0;
#X connect 9 0 54 0;
#X connect 10 0 8 0;
#X connect 12 0 78 0;
#X connect 12 0 84 0;
#X connect 12 0 86 0;
#X connect 12 1 24 0;
#X connect 13 0 14 0;
#X connect 15 0 16 0;
#X connect 17 0 23 0;
#X connect 18 0 23 0;
#X connect 19 0 23 0;
#X connect 20 0 22 0;
#X connect 21 0 20 0;
#X connect 22 0 23 0;
#X connect 23 0 12 0;
#X connect 25 0 26 0;
#X connect 26 0 23 0;
#X connect 27 0 51 0;
#X connect 29 0 52 0;
#X connect 30 0 53 0;
#X connect 33 0 34 0;
#X connect 34 0 23 0;
#X connect 35 0 36 0;
#X connect 36 0 37 0;
#X connect 36 1 40 0;
#X connect 37 0 38 0;
#X connect 39 0 12 0;
#X connect 40 0 38 0;
#X connect 41 0 46 0;
#X connect 41 1 47 0;
#X connect 43 0 49 0;
#X connect 43 1 50 0;
#X connect 45 0 41 0;
#X connect 46 0 42 0;
#X connect 47 0 42 0;
#X connect 48 0 43 0;
#X connect 49 0 44 0;
#X connect 50 0 44 0;
#X connect 51 0 28 0;
#X connect 52 0 31 0;
#X connect 53 0 32 0;
#X connect 54 0 11 0;
#X connect 55 0 6 0;
#X connect 56 0 7 0;
#X connect 57 0 58 0;
#X connect 58 0 12 0;
#X connect 59 0 60 0;
#X connect 60 0 12 0;
#X connect 61 0 62 0;
#X connect 62 0 12 0;
#X connect 63 0 64 0;
#X connect 64 0 12 0;
#X connect 65 0 66 0;
#X connect 66 0 67 0;
#X connect 68 0 69 0;
#X connect 69 0 70 0;
#X connect 71 0 72 0;
#X connect 72 0 87 0;
#X connect 73 0 76 0;
#X connect 73 1 77 0;
#X connect 75 0 73 0;
#X connect 76 0 74 0;
#X connect 77 0 74 0;
#X connect 78 0 27 0;
#X connect 78 1 29 0;
#X connect 78 2 30 0;
#X connect 78 3 79 0;
#X connect 79 0 80 0;
#X connect 80 0 81 0;
#X connect 82 0 83 0;
#X connect 83 0 85 0;
#X connect 84 0 4 0;
#X connect 84 1 5 0;
#X connect 84 2 9 0;
#X connect 84 3 82 0;
#X connect 86 0 65 0;
#X connect 86 1 68 0;
#X connect 86 2 71 0;
#X connect 86 3 88 0;
#X connect 88 0 89 0;
#X connect 89 0 90 0;
#X restore 85 32 pd knobs;
#N canvas 178 161 621 486 status 0;
#X obj 189 63 loadbang;
#X obj 193 169 bng 19 250 50 0 empty empty empty 0 -10 0 12 #fcfcfc #000000 #000000;
#X obj 291 166 bng 19 250 50 0 empty empty empty 0 -10 0 12 #fcfcfc #000000 #000000;
#X obj 397 179 bng 19 250 50 0 empty empty empty 0 -10 0 12 #fcfcfc #000000 #000000;
#X msg 189 85 symbol stopped;
#X obj 291 213 s led;
#X msg 291 189 1;
#X msg 193 192 2;
#X msg 510 185 0;
#X obj 181 108 route list symbol;
#X obj 181 140 route playing recording;
#X obj 181 237 makefilename Playing\ -%.1fs;
#X obj 230 260 makefilename Recording\ -%.1fs;
#X obj 193 215 s led;
#X obj 510 209 s led;
#X obj 397 133 list trim;
#X obj 397 157 route stopped;
#X text 328 30 status display;
#X obj 181 31 r looper-status;
#X obj 181 307 makefilename 1:\ %s;
#X msg 24 260 set \$1;
#X obj 24 237 makefilename %d:\ %%s;
#X obj 24 209 r activeLooper;
#X msg 397 207 symbol Stopped;
#X obj 181 429 spigot 1;
#X obj 234 405 r status-gate;
#X obj 181 452 s menuStatus;
#X obj 436 261 r inputMonitoring;
#X symbolatom 189 381 35 0 0 0 - - - 0;
#X obj 181 359 makefilename %-20s;
#X obj 436 282 sel 0;
#X msg 436 303 set %-20s;
#X msg 513 303 set %-20sI;
#X connect 0 0 4 0;
#X connect 1 0 7 0;
#X connect 2 0 6 0;
#X connect 3 0 8 0;
#X connect 3 0 23 0;
#X connect 4 0 9 0;
#X connect 6 0 5 0;
#X connect 7 0 13 0;
#X connect 8 0 14 0;
#X connect 9 0 10 0;
#X connect 9 1 15 0;
#X connect 10 0 1 0;
#X connect 10 0 11 0;
#X connect 10 1 2 0;
#X connect 10 1 12 0;
#X connect 11 0 19 0;
#X connect 12 0 19 0;
#X connect 15 0 16 0;
#X connect 16 0 3 0;
#X connect 18 0 9 0;
#X connect 19 0 29 0;
#X connect 20 0 19 0;
#X connect 21 0 20 0;
#X connect 22 0 21 0;
#X connect 23 0 19 0;
#X connect 24 0 26 0;
#X connect 25 0 24 1;
#X connect 27 0 30 0;
#X connect 29 0 28 0;
#X connect 29 0 24 0;
#X connect 30 0 31 0;
#X connect 30 1 32 0;
#X connect 31 0 29 0;
#X connect 32 0 29 0;
#X restore 142 32 pd status;
#X obj 994 135 vumeter;
#X obj 1058 135 vumeter;
#X obj 1018 76 r~ inL;
#X obj 1073 76 r~ inR;
#X obj 919 135 throw~ outL;
#X obj 1122 135 throw~ outR;
#X obj 1034 108 tape 4;
#X connect 2 0 6 0;
#X connect 3 0 6 1;
#X connect 6 0 4 0;
#X connect 6 0 0 0;
#X connect 6 1 5 0;
#X connect 6 1 1 0;
#X connect 9 0 13 0;
#X connect 10 0 13 1;
#X connect 13 0 11 0;
#X connect 13 0 7 0;
#X connect 13 1 12 0;
#X connect 13 1 8 0;
#X connect 16 0 20 0;
#X connect 17 0 20 1;
#X connect 20 0 18 0;
#X connect 20 0 14 0;
#X connect 20 1 19 0;
#X connect 20 1 15 0;
#X connect 26 0 30 0;
#X connect 27 0 30 1;
#X connect 30 0 28 0;
#X connect 30 0 24 0;
#X connect 30 1 29 0;
#X connect 30 1 25 0;
