#N canvas 64 88 450 300 12;
#X obj 21 21 inlet;
#X obj 112 21 inlet;
#X obj 60 109 == 1;
#X obj 171 111 == 2;
#X obj 21 133 spigot;
#X obj 132 135 spigot;
#X obj 21 157 outlet;
#X obj 132 159 outlet;
#X obj 227 139 spigot;
#X obj 227 163 outlet;
#X obj 266 115 == 3;
#X obj 317 139 spigot;
#X obj 317 163 outlet;
#X obj 356 115 == 4;
#X obj 21 45 t a a a a;
#X obj 112 48 t f f f f;
#X connect 0 0 14 0;
#X connect 1 0 15 0;
#X connect 2 0 4 1;
#X connect 3 0 5 1;
#X connect 4 0 6 0;
#X connect 5 0 7 0;
#X connect 8 0 9 0;
#X connect 10 0 8 1;
#X connect 11 0 12 0;
#X connect 13 0 11 1;
#X connect 14 0 4 0;
#X connect 14 1 5 0;
#X connect 14 2 8 0;
#X connect 14 3 11 0;
#X connect 15 0 2 0;
#X connect 15 1 3 0;
#X connect 15 2 10 0;
#X connect 15 3 13 0;
