#N canvas 845 124 386 208 10;
#X obj 114 107 looper-mix;
#X obj 255 30 r activeLooper;
#X obj 216 77 spigot;
#X obj 216 101 s looper-status;
#X obj 142 30 inlet~;
#X obj 199 30 inlet~;
#X obj 99 154 outlet~;
#X obj 156 154 outlet~;
#X obj 39 30 r looper-msg-\$1;
#X obj 27 79 r looper-mix-\$1;
#X obj 255 54 == \$1;
#X obj 181 131 s looper-mute-\$1;
#X obj 142 56 looper~ 120;
#X connect 0 0 6 0;
#X connect 0 1 7 0;
#X connect 0 2 11 0;
#X connect 1 0 10 0;
#X connect 2 0 3 0;
#X connect 4 0 12 0;
#X connect 5 0 12 1;
#X connect 8 0 12 0;
#X connect 9 0 0 0;
#X connect 10 0 2 1;
#X connect 12 0 0 1;
#X connect 12 1 0 2;
#X connect 12 2 2 0;
